<?xml version="1.0" standalone="no"?>
<!DOCTYPE svg PUBLIC "-//W3C//DTD SVG 20010904//EN"
 "http://www.w3.org/TR/2001/REC-SVG-20010904/DTD/svg10.dtd">
<svg version="1.0" xmlns="http://www.w3.org/2000/svg"
 width="564.000000pt" height="564.000000pt" viewBox="0 0 564.000000 564.000000"
 preserveAspectRatio="xMidYMid meet">
<metadata>
Created by potrace 1.14, written by Peter Selinger 2001-2017
</metadata>
<g transform="translate(0.000000,564.000000) scale(0.100000,-0.100000)"
fill="#000000" stroke="none">
<path d="M0 2815 l0 -2115 2820 0 2820 0 0 2115 0 2115 -2820 0 -2820 0 0
-2115z m2627 768 c20 -11 51 -36 67 -57 30 -37 31 -41 34 -158 4 -148 -1 -179
-38 -221 -15 -18 -128 -100 -249 -181 -219 -147 -220 -149 -198 -166 12 -9
110 -76 217 -147 203 -136 232 -159 249 -206 13 -35 14 -257 2 -290 -32 -85
-140 -141 -223 -118 -25 8 -161 92 -328 204 -393 265 -395 268 -395 582 0 183
1 192 26 245 32 69 68 111 133 159 109 80 533 359 561 369 39 15 96 9 142 -15z
m534 15 c51 -17 567 -365 615 -414 86 -89 107 -172 102 -392 -5 -182 -20 -238
-89 -316 -52 -59 -588 -420 -648 -436 -83 -22 -190 33 -220 113 -16 42 -14
261 3 300 18 45 53 72 289 231 l206 139 -37 26 c-20 15 -113 78 -207 140 -93
62 -183 125 -199 140 -47 43 -56 78 -56 211 0 134 9 168 58 213 31 29 91 56
128 57 12 0 36 -5 55 -12z"/>
</g>
</svg>
